<?xml version="1.0" encoding="UTF-8"?>
<!DOCTYPE svg PUBLIC "-//W3C//DTD SVG 1.0//EN" "http://www.w3.org/TR/2001/REC-SVG-20010904/DTD/svg10.dtd">
<!-- Creator: CorelDRAW 2018 (64-Bit) -->
<svg xmlns="http://www.w3.org/2000/svg" xml:space="preserve" width="70px" height="70px" version="1.0" style="shape-rendering:geometricPrecision; text-rendering:geometricPrecision; image-rendering:optimizeQuality; fill-rule:evenodd; clip-rule:evenodd"
viewBox="0 0 70 70"
 xmlns:xlink="http://www.w3.org/1999/xlink">
 <defs>
  <style type="text/css">
   <![CDATA[
    .fil3 {fill:#FEFEFE}
    .fil2 {fill:#373435}
    .fil0 {fill:#CC0D0D}
    .fil1 {fill:#393939;fill-opacity:0.325490}
   ]]>
  </style>
 </defs>
 <g id="Layer_x0020_1">
  <metadata id="CorelCorpID_0Corel-Layer"/>
  <g id="_1716474727280">
   <rect class="fil0" x="0.04" y="-0.04" width="69.92" height="70" rx="1.6" ry="1.39"/>
   <path class="fil1" d="M0.04 64.97l0 -21.97 0 -9.08c13.72,-9.13 27.22,-17.04 41.09,-25.72l0.04 37.54 6.13 0 0.02 9.85 -7.45 14.41 -10.78 -0.04 -27.47 0c-0.87,0 -1.58,-0.71 -1.58,-1.58l0 -3.41z"/>
  </g>
  <g id="_1716474726640">
   <path class="fil2" d="M41.13 45.12l0 -36.12 -20 36.11 4.41 0.01c0.7,-1.63 2,-3.83 2.88,-5.38 1.7,-2.96 7.55,-13.98 8.77,-15.74l0.02 21.14 3.92 -0.02z"/>
   <polygon class="fil2" points="47.3,46.54 18.95,46.56 21.09,50.62 47.3,50.64 "/>
   <path class="fil2" d="M37.43 52.91c-1.59,0.38 -2.15,-0.49 -3.2,-0.87 -2.19,-0.79 -2.54,1.71 -6.9,0.12 -2.71,-0.98 -2.72,1.69 -6.21,0.39 -0.02,0.98 -0.22,1.31 0.41,1.73 1.61,1.04 3.37,-1.17 5.22,-0.91 1.14,0.17 1.86,1.04 3.53,0.95 1.41,-0.08 2.07,-1.22 3.44,-0.95 1.14,0.22 1.62,1.37 3.52,0.98 1.24,-0.26 1.9,-1.27 3.46,-0.99 0.52,0.09 3.98,2.3 6.61,-0.21 0,-0.22 0.03,-0.65 -0.01,-0.86 -0.13,-0.58 0.14,-0.17 -0.29,-0.45 -0.75,0.51 -2.06,1.11 -3.18,1.12 -1.31,0.01 -2,-0.86 -3.13,-1.04 -1.57,-0.26 -2.1,0.71 -3.27,0.99z"/>
   <path class="fil2" d="M37.62 55.74c-1.6,0.46 -2.23,-0.34 -3.23,-0.78 -2.23,-0.95 -2.82,1.71 -6.9,0.13 -2.89,-1.12 -2.93,1.69 -6.37,0.33 0,0.63 -0.32,2.59 2.25,1.86 1.11,-0.32 1.97,-1.24 3.38,-1.04 1.14,0.16 1.88,1.03 3.52,0.95 1.43,-0.08 2.07,-1.21 3.45,-0.95 1.15,0.21 1.63,1.36 3.51,0.98 1.25,-0.25 1.91,-1.27 3.48,-1 1.32,0.23 1.71,1.13 3.53,1 1.11,-0.08 2.37,-0.56 3.06,-1.21 0.01,-0.25 0.05,-0.6 0,-0.84 -0.13,-0.58 0.14,-0.18 -0.29,-0.46 -3.56,2.3 -4.81,0.33 -6.3,0.08 -1.56,-0.25 -1.91,0.61 -3.09,0.95z"/>
  </g>
  <g id="_1716474726416">
   <path class="fil3" d="M41.13 44.33l0 -36.13 -20 36.11 4.41 0.02c0.7,-1.64 2,-3.84 2.88,-5.38 1.7,-2.97 7.55,-13.99 8.77,-15.75l0.02 21.14 3.92 -0.01z"/>
   <polygon class="fil3" points="47.3,45.74 18.95,45.76 21.09,49.82 47.3,49.84 "/>
   <path class="fil3" d="M37.43 52.11c-1.59,0.38 -2.15,-0.49 -3.2,-0.87 -2.19,-0.79 -2.54,1.71 -6.9,0.13 -2.71,-0.99 -2.72,1.68 -6.21,0.38 -0.02,0.98 -0.22,1.32 0.41,1.73 1.61,1.04 3.37,-1.17 5.22,-0.9 1.14,0.16 1.86,1.03 3.53,0.94 1.41,-0.08 2.07,-1.22 3.44,-0.95 1.14,0.22 1.62,1.37 3.52,0.98 1.24,-0.26 1.9,-1.27 3.46,-0.99 0.52,0.09 3.98,2.3 6.61,-0.21 0,-0.22 0.03,-0.65 -0.01,-0.86 -0.13,-0.58 0.14,-0.17 -0.29,-0.45 -0.75,0.51 -2.06,1.11 -3.18,1.12 -1.31,0.01 -2,-0.85 -3.13,-1.04 -1.57,-0.26 -2.1,0.71 -3.27,0.99z"/>
   <path class="fil3" d="M37.62 54.94c-1.6,0.46 -2.23,-0.34 -3.23,-0.77 -2.23,-0.96 -2.82,1.7 -6.9,0.12 -2.89,-1.12 -2.93,1.69 -6.37,0.33 0,0.63 -0.32,2.59 2.25,1.86 1.11,-0.32 1.97,-1.23 3.38,-1.04 1.14,0.16 1.88,1.04 3.52,0.95 1.43,-0.08 2.07,-1.21 3.45,-0.95 1.15,0.22 1.63,1.36 3.51,0.98 1.25,-0.25 1.91,-1.27 3.48,-1 1.32,0.23 1.71,1.14 3.53,1 1.11,-0.08 2.37,-0.56 3.06,-1.21 0.01,-0.25 0.05,-0.59 0,-0.84 -0.13,-0.58 0.14,-0.18 -0.29,-0.45 -3.56,2.3 -4.81,0.32 -6.3,0.07 -1.56,-0.25 -1.91,0.61 -3.09,0.95z"/>
  </g>
 </g>
</svg>
